<svg width="97" height="34" xmlns="http://www.w3.org/2000/svg"><defs><linearGradient x1="50%" y1="2.54%" x2="50%" y2="100%" id="a"><stop stop-color="#F4C024" offset="0%"/><stop stop-color="#00AD6A" offset="49.239%"/><stop stop-color="#0093D0" offset="100%"/></linearGradient></defs><g fill="none" fill-rule="evenodd"><path d="M15.19.82c-1.11 1.108-1.845 3.455-2.59 5.628-2.91-1.394-6.059-3.032-7.621-1.47-1.564 1.564.074 4.713 1.47 7.623-2.174.745-4.519 1.479-5.629 2.588-.512.511-.82 1.103-.82 1.81 0 2.22 3.412 3.288 6.466 4.364-1.398 2.92-3.057 6.087-1.486 7.658 1.57 1.57 4.736-.09 7.656-1.487C13.713 30.588 14.779 34 17 34c.708 0 1.3-.31 1.81-.82 1.108-1.11 1.845-3.455 2.589-5.628 2.91 1.394 6.058 3.033 7.621 1.469 1.564-1.563-.075-4.712-1.47-7.622 2.175-.745 4.52-1.479 5.629-2.589.511-.51.821-1.102.821-1.81 0-2.22-3.412-3.287-6.466-4.363 1.399-2.92 3.057-6.087 1.486-7.658-1.57-1.57-4.737.09-7.658 1.487C20.287 3.412 19.22 0 17 0c-.709 0-1.3.308-1.81.82zm-1.348 6.206l.083-.218c.637-1.653 1.296-3.363 2.132-4.2.408-.407.719-.459.943-.459 1.279 0 2.233 2.475 3.074 4.66l.083.217c-1.188.531-2.289.93-3.157.93-.87 0-1.97-.399-3.158-.93zm9.552 3.58c-.614-.616-1.11-1.676-1.576-2.892l.213-.094c2.14-.95 4.565-2.027 5.47-1.122.904.906-.172 3.33-1.121 5.47l-.095.214c-1.215-.467-2.275-.963-2.89-1.577zM7.62 11.967c-.949-2.14-2.025-4.564-1.122-5.47.905-.904 3.33.172 5.47 1.122l.187.082c-.458 1.23-.948 2.299-1.551 2.903-.603.603-1.673 1.092-2.902 1.55l-.082-.187zm13.013-3.74c.533 1.297 1.106 2.456 1.894 3.244.788.789 1.947 1.362 3.244 1.895-.54 1.294-.955 2.518-.955 3.632 0 1.115.415 2.34.955 3.634-1.297.534-2.456 1.106-3.244 1.894-.788.788-1.361 1.947-1.894 3.246-1.295-.541-2.518-.956-3.633-.956-1.114 0-2.34.415-3.634.956-.533-1.299-1.106-2.458-1.893-3.246-.788-.788-1.947-1.36-3.246-1.894.542-1.295.956-2.52.956-3.634 0-1.114-.414-2.338-.956-3.632 1.299-.533 2.458-1.106 3.246-1.895.787-.788 1.36-1.947 1.893-3.244 1.294.54 2.52.956 3.634.956 1.115 0 2.338-.416 3.633-.956zm5.41 8.771c0-.868.4-1.969.93-3.158l.218.084c2.185.843 4.659 1.796 4.659 3.074 0 .225-.052.535-.46.943-.836.837-2.546 1.495-4.199 2.133l-.219.084c-.529-1.19-.928-2.289-.928-3.16zM6.81 20.075c-2.185-.843-4.66-1.796-4.66-3.076 0-.223.053-.534.46-.942.837-.836 2.546-1.493 4.2-2.132l.217-.083c.531 1.188.93 2.289.93 3.157 0 .871-.399 1.97-.93 3.16a32.097 32.097 0 0 0-.217-.084zm-.311 7.427c-.903-.905.173-3.33 1.122-5.47l.094-.213c1.216.465 2.275.962 2.89 1.577.615.614 1.11 1.673 1.576 2.89-.07.032-.14.062-.213.093-1.57.697-3.294 1.464-4.459 1.464-.42 0-.77-.101-1.01-.341zm15.534-1.123c-.065-.026-.125-.054-.187-.082.457-1.229.947-2.299 1.55-2.901.604-.603 1.672-1.093 2.901-1.552.03.064.056.125.084.188.949 2.14 2.025 4.565 1.121 5.47-.24.24-.59.34-1.01.34-1.164 0-2.889-.765-4.46-1.463zm-8.107.812l-.083-.217c1.189-.532 2.289-.93 3.158-.93.868 0 1.97.399 3.157.93l-.083.217c-.637 1.653-1.296 3.363-2.131 4.2-.41.407-.72.46-.943.46-1.28 0-2.234-2.475-3.075-4.66zM15.189.82V.818.82z" fill="url(#a)"/><path d="M43 22.388V10.647c0-.337.269-.611.6-.611h9.894c.044 0 .082.037.082.083v.875a.084.084 0 0 1-.082.084h-9.099a.2.2 0 0 0-.198.202v4.15a.2.2 0 0 0 .198.201h8.624c.045 0 .082.038.082.084v.847a.083.083 0 0 1-.082.084h-8.624a.2.2 0 0 0-.198.2v4.91c0 .11.09.201.198.201h9.237c.045 0 .082.038.082.084v.875a.083.083 0 0 1-.082.083H43.599a.606.606 0 0 1-.599-.61zM57.586 23c-.33 0-.6-.276-.6-.612V10.12c0-.047.039-.083.082-.083h.933c.045 0 .082.036.082.083v11.637a.2.2 0 0 0 .197.201h9.05c.047 0 .084.038.084.084v.875a.083.083 0 0 1-.083.084h-9.745zm27.92-3.443a.195.195 0 0 0-.173.108l-1.679 3.29a.082.082 0 0 1-.073.045h-1.014a.084.084 0 0 1-.072-.123l6.245-12.18c.014-.025.325-.624 1.003-.624.663 0 .97.563 1.004.627l6.244 12.177a.09.09 0 0 1-.003.082.084.084 0 0 1-.07.041h-1.014a.08.08 0 0 1-.073-.046l-1.679-3.29a.196.196 0 0 0-.173-.107h-8.472zm.565-1.309a.202.202 0 0 0 .174.295h6.997c.067 0 .13-.038.168-.098a.208.208 0 0 0 .004-.197l-3.494-6.83c-.036-.07-.113-.096-.172-.096-.061 0-.14.026-.176.097l-3.501 6.83zm-5.05.186c.204.333.308.722.308 1.158 0 .472-.093.89-.274 1.243a2.92 2.92 0 0 1-.736.913 4.132 4.132 0 0 1-1.085.635c-.385.156-.788.24-1.215.328l-.106.023c-.467.096-.956.166-1.454.205-.497.04-.992.06-1.475.06l-5.538-.001a.083.083 0 0 1-.082-.084v-.88c0-.046.037-.083.082-.083l5.577-.001a15.924 15.924 0 0 0 2.022-.127c.58-.08 1.14-.169 1.6-.357.447-.184.8-.427 1.045-.72.25-.297.372-.65.372-1.08a1.41 1.41 0 0 0-.297-.897 2.707 2.707 0 0 0-.81-.685 6.387 6.387 0 0 0-1.204-.524c-.454-.15-.948-.293-1.463-.426-.51-.13-1.046-.259-1.593-.383a31.265 31.265 0 0 1-1.595-.407 15.714 15.714 0 0 1-1.464-.494 5.746 5.746 0 0 1-1.215-.648 3.096 3.096 0 0 1-.825-.862 2.12 2.12 0 0 1-.306-1.14c0-.424.083-.805.245-1.132.162-.33.389-.617.67-.854a3.96 3.96 0 0 1 .996-.604c.38-.162.789-.291 1.218-.385.81-.193 2.25-.225 2.74-.225h5.015c.045 0 .081.039.081.085v.878a.082.082 0 0 1-.08.084l-5.017-.001c-.707.003-1.352.045-1.91.127-.61.089-1.094.183-1.484.355-.4.177-.709.404-.92.674a1.503 1.503 0 0 0-.316.962c0 .312.098.579.298.814.197.235.471.445.81.625.342.181.748.35 1.206.497.471.152.965.294 1.467.419.519.131 1.051.265 1.6.398.546.134 1.084.28 1.6.436.517.154 1.014.33 1.473.521.463.193.872.42 1.215.676.345.257.623.554.824.884z" fill="#FFF"/></g></svg>